<?xml version="1.0" encoding="UTF-8" standalone="no"?>
<svg
   xmlns:dc="http://purl.org/dc/elements/1.1/"
   xmlns:cc="http://web.resource.org/cc/"
   xmlns:rdf="http://www.w3.org/1999/02/22-rdf-syntax-ns#"
   xmlns:svg="http://www.w3.org/2000/svg"
   xmlns="http://www.w3.org/2000/svg"
   xmlns:sodipodi="http://sodipodi.sourceforge.net/DTD/sodipodi-0.dtd"
   xmlns:inkscape="http://www.inkscape.org/namespaces/inkscape"
   version="1.1"
   id="Layer_1"
   x="0px"
   y="0px"
   width="50px"
   height="50px"
   viewBox="0 0 50 50"
   enable-background="new 0 0 50 50"
   xml:space="preserve"
   sodipodi:version="0.32"
   inkscape:version="0.45.1"
   sodipodi:docname="activity-geoquiz.svg"
   inkscape:output_extension="org.inkscape.output.svg.inkscape"
   sodipodi:docbase="C:\cygwin\home\gmccreight\Geoquiz.activity\activity"><metadata
   id="metadata8"><rdf:RDF><cc:Work
       rdf:about=""><dc:format>image/svg+xml</dc:format><dc:type
         rdf:resource="http://purl.org/dc/dcmitype/StillImage" /></cc:Work></rdf:RDF></metadata><defs
   id="defs6" /><sodipodi:namedview
   inkscape:window-height="1074"
   inkscape:window-width="1764"
   inkscape:pageshadow="2"
   inkscape:pageopacity="0.0"
   guidetolerance="10.0"
   gridtolerance="10.0"
   objecttolerance="10.0"
   borderopacity="1.0"
   bordercolor="#666666"
   pagecolor="#ffffff"
   id="base"
   inkscape:zoom="7.54"
   inkscape:cx="26.32626"
   inkscape:cy="25"
   inkscape:window-x="2025"
   inkscape:window-y="173"
   inkscape:current-layer="Layer_1" />

<path
   style="fill:none;fill-rule:evenodd;stroke:#000000;stroke-width:2;stroke-linecap:butt;stroke-linejoin:miter;stroke-opacity:1;stroke-miterlimit:4;stroke-dasharray:none"
   d="M 2.8588938,17.10143 C 2.8696634,16.623164 3.2827367,15.253871 3.4676448,14.514237 C 3.6521467,13.77623 3.9242081,13.238624 3.9242081,12.383608 C 3.9242081,11.504065 3.8664253,10.825109 4.2285837,10.100792 C 4.3965232,9.7649132 5.6929012,9.2452262 6.0548369,8.8832912 C 6.6057694,8.3323572 6.9019721,7.4274042 7.4245271,6.9048502 C 8.4119461,5.9174302 9.2279741,6.9960742 9.5551561,5.6873471 C 9.8441001,4.5315675 9.7943551,4.5948213 10.772657,3.8610939 C 11.472578,3.336154 12.749901,3.100554 13.664225,2.7957794 C 14.64049,2.470358 15.95385,2.6435916 17.012356,2.6435916 C 18.041179,2.6435916 19.05071,2.5402965 20.056112,2.3392161 C 21.212942,2.1078502 21.121426,2.3187453 21.121426,3.4045305 C 21.121426,4.2219956 22.219303,4.2877507 22.947679,4.469845 C 23.690141,4.6554602 24.277426,4.7642346 24.926121,4.9264082 C 25.766989,5.1366255 26.463608,5.2151742 27.056749,4.6220328 C 27.67909,3.9996917 27.797342,3.8940542 28.883003,4.1654694 C 30.234798,4.5034182 31.144246,5.5351593 32.687697,5.5351593 C 33.510649,5.5351593 34.046082,6.8822392 34.361763,7.5136012 C 34.916151,8.6223792 35.579265,9.6053392 35.579265,10.861731 C 35.579265,11.876212 36.487666,12.570299 37.253331,13.144547 C 38.179305,13.839029 38.880179,14.490629 39.840522,14.970801 C 40.29,15.19554 40.766435,16.505465 41.210212,16.949242 C 41.710719,17.44975 42.582384,18.167365 43.188653,18.318932 C 43.922415,18.502373 45.118638,18.292999 45.623657,18.166744 C 46.612631,17.919501 46.232408,19.866303 46.232408,20.601748 C 46.232408,21.648642 45.601695,22.449965 44.862718,23.188941 C 44.227703,23.823957 43.391093,23.899628 42.732089,24.558631 C 42.060212,25.230509 41.36054,25.777992 40.753648,26.384884 C 40.013085,27.125447 39.734162,27.829811 39.536146,28.819888 C 39.300159,29.999825 39.536146,31.410893 39.536146,32.624583 C 39.536146,33.48698 39.536146,34.349377 39.536146,35.211775 C 39.536146,36.318845 39.688265,37.038097 39.079583,37.646779 C 38.349148,38.377214 37.276991,36.990707 36.644579,38.255529 C 36.276673,38.991342 36.354591,40.480797 36.188016,41.147097 C 35.969851,42.019755 34.519102,38.890041 35.274889,42.668975 C 35.3594,43.09153 34.235461,43.682517 34.057387,44.038665 C 33.764677,44.624085 33.133689,45.418927 32.687697,45.864918 C 32.086078,46.466538 31.335605,46.923194 30.557068,47.234608 C 29.874156,47.507773 28.718409,47.386796 27.817688,47.386796 C 27.021801,47.386796 26.085198,47.538984 25.230496,47.538984 C 24.706444,47.538984 24.579945,45.697721 24.469557,45.256167 C 24.233541,44.312105 23.672894,43.815028 23.252055,42.973351 C 22.786819,42.042878 22.698652,41.728217 22.491116,40.690534 C 22.32355,39.8527 22.115071,39.276016 21.577989,38.559905 C 21.294287,38.181635 21.237705,37.046581 21.121426,36.581465 C 20.933732,35.83069 21.196895,34.756461 21.425802,34.298648 C 21.807495,33.53526 22.186741,33.625727 22.186741,32.472395 C 22.186741,31.609997 22.186741,30.7476 22.186741,29.885203 C 22.186741,29.391887 20.564289,28.173754 20.208299,27.906762 C 19.376257,27.282729 19.183629,26.740294 18.990797,25.776133 C 18.824478,24.944535 18.990797,23.890194 18.990797,23.036753 C 18.990797,21.987517 18.438645,22.123626 17.468919,22.123626 C 16.344268,22.123626 15.694438,21.908287 14.729539,21.667063 C 13.755754,21.423616 12.943297,21.923389 12.142347,22.123626 C 11.578484,22.264593 10.783126,22.275814 10.011719,22.275814 C 9.2340991,22.275814 8.4531081,22.284997 7.8810911,22.428002 C 7.0464041,22.636674 6.4321519,22.271608 5.7504615,21.362687 C 5.1486322,20.560248 4.5213073,19.876003 3.9242081,19.079871 C 3.3909651,18.36888 3.1034635,18.079709 2.8588938,17.10143 z "
   id="path3190" /><path
   style="fill:none;fill-rule:evenodd;stroke:#000000;stroke-width:2;stroke-linecap:butt;stroke-linejoin:miter;stroke-miterlimit:4;stroke-dasharray:none;stroke-opacity:1"
   d="M 45.756283,34.333465 C 45.220664,34.515775 44.896651,34.566514 44.327908,35.324839 C 43.827065,35.992629 43.385128,36.169285 42.501654,36.390154 C 42.368543,36.423431 41.801584,38.09467 41.740716,38.216406 C 41.325857,39.046126 41.982646,39.648543 41.284152,40.347035 C 40.629109,41.002079 41.108481,42.12632 41.284152,42.477664 C 41.65799,43.225339 43.430306,42.309953 43.566969,42.173288 C 43.957805,41.782453 43.871344,40.330923 43.871344,39.738284 C 43.871344,38.573046 44.124184,37.879288 44.784471,36.998905 C 45.313301,36.293797 45.272647,35.597602 45.697598,35.172651 C 46.110783,34.759466 45.756283,35.051005 45.756283,34.333465 z "
   id="path3192"
   sodipodi:nodetypes="csssssssssc" /></svg>